<?xml version="1.0" ?>
<!DOCTYPE svg  PUBLIC '-//W3C//DTD SVG 1.1//EN'  'http://www.w3.org/Graphics/SVG/1.1/DTD/svg11.dtd'>
<svg id="history" version="1.1" viewBox="0 0 512 512" xmlns="http://www.w3.org/2000/svg" xmlns:xlink="http://www.w3.org/1999/xlink">
<g><g><path d="M417.396,489.463c-0.001-0.02-0.003-0.137-0.004-0.154c-0.011-0.461-0.021-0.912-0.038-1.291    c-0.115-3.994-0.402-7.965-0.853-11.799c-0.001-0.006-0.003-0.012-0.004-0.018c0-0.004,0-0.01,0-0.014    c-0.082-0.68-0.165-1.359-0.253-2.006c-0.04-0.313-0.081-0.625-0.129-0.938c-0.026-0.238-0.063-0.48-0.104-0.719    c0-0.002,0-0.004,0-0.006c-0.003-0.018-0.005-0.035-0.008-0.053c-0.002-0.008-0.003-0.018-0.004-0.025    c-0.076-0.523-0.153-1.049-0.238-1.572c-0.033-0.242-0.074-0.484-0.115-0.727l-0.041-0.238c-0.004-0.023-0.009-0.045-0.012-0.068    c-0.001-0.004-0.001-0.006-0.001-0.01l-0.049-0.285c-0.103-0.602-0.208-1.207-0.318-1.807c-0.003-0.02-0.006-0.039-0.01-0.057    c0-0.002-0.001-0.006-0.001-0.008c-0.002-0.006-0.003-0.014-0.004-0.02c0-0.002-0.001-0.002-0.001-0.002    c-0.164-0.916-0.339-1.82-0.53-2.766c-0.116-0.559-0.231-1.107-0.349-1.625c-0.571-2.619-1.17-5.039-1.822-7.357    c-0.192-0.707-0.395-1.414-0.608-2.119c-0.001-0.002-0.001-0.002-0.002-0.004c-0.068-0.244-0.139-0.482-0.215-0.727    c-0.162-0.563-0.343-1.129-0.537-1.734c-0.377-1.203-0.774-2.406-1.185-3.574c-0.002-0.006-0.005-0.012-0.007-0.02    c-0.001,0-0.001-0.002-0.001-0.004c-0.009-0.025-0.019-0.051-0.027-0.076c-0.218-0.629-0.441-1.246-0.641-1.789    c-0.013-0.033-0.024-0.066-0.036-0.1c-0.001-0.002-0.003-0.004-0.004-0.008c-0.077-0.219-0.161-0.445-0.239-0.65    c-0.249-0.662-0.497-1.322-0.755-1.984c-0.001-0.002-0.002-0.002-0.003-0.004c-0.004-0.012-0.008-0.021-0.012-0.031l-0.079-0.199    c-0.1-0.25-0.201-0.504-0.308-0.754c-0.209-0.535-0.427-1.072-0.657-1.639c-0.887-2.135-1.733-4.041-2.565-5.783    c-0.334-0.715-0.676-1.43-1.027-2.139c-0.036-0.08-0.077-0.162-0.118-0.242c-0.001-0.004-0.002-0.006-0.003-0.008    c-0.009-0.02-0.019-0.037-0.027-0.055c-0.003-0.006-0.006-0.012-0.009-0.02c0,0-0.001,0-0.001-0.002    c-0.33-0.668-0.67-1.336-0.98-1.92c-0.277-0.545-0.563-1.078-0.822-1.559c-0.021-0.039-0.041-0.078-0.063-0.117    c-0.266-0.51-0.53-1.002-0.772-1.424c-0.004-0.006-0.007-0.012-0.01-0.018l0,0c-0.002-0.004-0.003-0.006-0.005-0.01    c-0.003-0.004-0.006-0.01-0.009-0.016h0.001h-0.001c-0.688-1.254-1.347-2.414-2.002-3.52c-0.005-0.008-0.01-0.016-0.015-0.023l0,0    c-0.449-0.758-0.91-1.523-1.381-2.281c0,0,0-0.002-0.001-0.002c-0.001-0.002-0.003-0.004-0.005-0.008    c-0.006-0.008-0.011-0.018-0.017-0.027c-0.001-0.002-0.003-0.004-0.005-0.006c-0.367-0.602-0.742-1.193-1.129-1.781    c-0.296-0.482-0.609-0.959-0.883-1.363c-0.295-0.451-0.6-0.914-0.905-1.367c-4.207-6.232-8.977-12.154-14.165-17.592    c-0.75-0.791-1.509-1.572-2.239-2.291c-0.771-0.781-1.552-1.541-2.317-2.266c-0.792-0.762-1.594-1.512-2.397-2.23l-0.916-0.832    c-1.344-1.195-2.675-2.334-3.915-3.352c-1.051-0.883-2.19-1.793-3.581-2.859c-1.477-1.139-2.839-2.146-4.109-3.041    c-0.444-0.32-0.9-0.643-1.295-0.91c-0.92-0.637-1.841-1.264-2.701-1.824c-0.451-0.303-0.912-0.607-1.372-0.893    c-0.146-0.1-0.293-0.195-0.446-0.285c-0.948-0.607-1.905-1.203-2.88-1.783c-0.063-0.043-0.127-0.08-0.191-0.119    c-0.006-0.004-0.01-0.01-0.016-0.014c-0.016-0.008-0.032-0.018-0.048-0.027c-0.001,0-0.002-0.002-0.003-0.002l-0.617-0.361    c-0.271-0.158-0.536-0.313-0.804-0.469c-0.169-0.098-0.337-0.197-0.506-0.295l0,0c-0.016-0.008-0.032-0.02-0.048-0.027    c-1.079-0.629-2.18-1.238-3.314-1.848l-0.55-0.293c-0.504-0.27-1.01-0.539-1.446-0.76c-0.191-0.102-0.386-0.201-0.581-0.299    l-0.523-0.27c-0.016-0.008-0.032-0.016-0.048-0.023c-0.001-0.002-0.002-0.002-0.004-0.004l-0.124-0.061    c-0.612-0.309-1.236-0.613-1.911-0.941c-0.011-0.004-0.021-0.01-0.031-0.016c-7.389-3.566-15.07-6.424-22.956-8.576    c0.245-0.123,0.493-0.246,0.723-0.365c0.603-0.297,1.198-0.609,1.785-0.916l0.303-0.158c0.001-0.002,0.003-0.002,0.004-0.002    c0.007-0.004,0.014-0.008,0.021-0.012c0.002,0,0.004-0.002,0.006-0.004c0.047-0.025,0.093-0.049,0.139-0.076    c0.054-0.031,0.104-0.059,0.159-0.084c0.037-0.02,0.073-0.039,0.11-0.059c0.813-0.432,1.617-0.875,2.419-1.316    c0.067-0.037,0.133-0.076,0.197-0.115c0.604-0.342,1.179-0.674,1.742-1.002c0.239-0.139,0.476-0.275,0.716-0.418    c0.734-0.432,1.438-0.857,2.123-1.281c0.017-0.01,0.033-0.02,0.051-0.029c0.027-0.018,0.054-0.035,0.08-0.051    c0.464-0.287,0.921-0.576,1.376-0.863l0.689-0.434c0.01-0.008,0.021-0.014,0.03-0.02c0.004-0.004,0.008-0.006,0.012-0.008    c0,0,0.001,0,0.001-0.002c0.007-0.004,0.015-0.008,0.021-0.014c0.079-0.047,0.148-0.092,0.172-0.107l0,0    c1.376-0.887,2.835-1.867,4.463-3.002c0.065-0.047,0.13-0.094,0.193-0.143c0.022-0.016,0.043-0.029,0.052-0.035    c0.57-0.404,1.142-0.816,1.712-1.23c0.007-0.004,0.09-0.064,0.098-0.07l0.295-0.221c0.752-0.545,1.495-1.109,2.238-1.674    c0.002-0.002,0.005-0.004,0.008-0.006c0.028-0.021,0.058-0.043,0.086-0.066l0.538-0.42c0.531-0.412,1.062-0.826,1.585-1.25    c0.015-0.012,0.024-0.027,0.039-0.039c0.017-0.014,0.037-0.023,0.054-0.037c0.061-0.053,0.135-0.109,0.248-0.197    c0.002-0.002,0.004-0.002,0.006-0.004c0.005-0.004,0.01-0.008,0.016-0.012c0.009-0.008,0.013-0.01,0.022-0.018    c0.623-0.5,1.225-1,1.867-1.535c0.012-0.012,0.024-0.021,0.037-0.031c0.001,0,0.001-0.002,0.002-0.002l0,0l0.607-0.508    c0.02-0.016,0.039-0.033,0.06-0.051c0.002-0.002,0.005-0.002,0.007-0.004c0.033-0.029,0.065-0.059,0.1-0.086    c0.617-0.525,1.231-1.055,1.798-1.559c0.013-0.012,0.026-0.021,0.039-0.033c0.747-0.643,1.513-1.332,2.35-2.115    c0.059-0.053,0.115-0.109,0.174-0.162c0.38-0.348,0.754-0.699,1.123-1.049l0.271-0.258c0.041-0.039,0.083-0.076,0.123-0.115    c0.004-0.004,0.006-0.008,0.009-0.01l0.689-0.658c0.766-0.744,1.531-1.5,2.249-2.229c0.426-0.424,0.845-0.863,1.263-1.299    l0.357-0.373c0.005-0.004,0.01-0.01,0.015-0.016c0.002-0.002,0.005-0.004,0.007-0.006c0.001-0.002,0.001-0.002,0.002-0.002    c1.112-1.166,2.217-2.363,3.286-3.564c0.44-0.498,0.873-0.996,1.312-1.5l0.138-0.158c3.03-3.527,5.915-7.258,8.573-11.086    c0.448-0.645,0.894-1.289,1.321-1.943c0.213-0.311,0.415-0.633,0.623-0.949c0.231-0.354,0.469-0.707,0.697-1.061l0.06-0.092    c0.001-0.002,0.002-0.004,0.003-0.006c0.006-0.01,0.012-0.018,0.017-0.025c0.289-0.453,0.577-0.908,0.854-1.352    c0.408-0.646,0.815-1.305,1.212-1.963c0.002-0.004,0.003-0.006,0.005-0.01c0.003-0.004,0.005-0.008,0.008-0.012    c0.249-0.418,0.488-0.836,0.733-1.254c0.292-0.496,0.588-0.986,0.872-1.486c0.001-0.002,0.003-0.004,0.005-0.008    c0.004-0.006,0.007-0.012,0.01-0.018c0.002-0.002,0.003-0.004,0.004-0.006s0.001-0.004,0.002-0.004    c0.589-1.025,1.16-2.072,1.712-3.104c0.5-0.928,0.989-1.867,1.438-2.756c0.003-0.006,0.006-0.012,0.009-0.018    c0.007-0.014,0.015-0.027,0.021-0.041c0.001-0.002,0.001-0.004,0.002-0.006c0.087-0.168,0.171-0.336,0.256-0.506l0.094-0.189    c0.485-0.961,0.949-1.922,1.376-2.844c0.001-0.002,0.001-0.004,0.002-0.006c0.005-0.01,0.011-0.021,0.016-0.031    c0.468-0.998,0.927-1.996,1.374-3.014c0.028-0.061,0.055-0.121,0.081-0.182c0.011-0.023,0.021-0.047,0.031-0.07    c0.752-1.725,1.494-3.527,2.221-5.4c0.001-0.002,0.002-0.002,0.003-0.004c0.002-0.006,0.005-0.014,0.007-0.02    c0.001-0.002,0.001-0.002,0.002-0.004l0.247-0.652c0.171-0.447,0.341-0.895,0.512-1.352c0.002-0.004,0.002-0.008,0.004-0.014    c0.028-0.074,0.056-0.148,0.079-0.223c0.262-0.701,0.515-1.412,0.759-2.131c0.059-0.15,0.113-0.301,0.162-0.451    c0.976-2.85,1.87-5.779,2.66-8.709l0.347-1.33c0.134-0.527,0.268-1.055,0.382-1.541c0.155-0.633,0.312-1.279,0.45-1.885    c0.162-0.691,0.313-1.369,0.437-1.98c0.151-0.691,0.291-1.381,0.408-2.008c0.001-0.006,0.003-0.014,0.004-0.021    c0.003-0.014,0.006-0.027,0.009-0.043c0-0.002,0-0.004,0.001-0.008c0.266-1.322,0.514-2.664,0.738-4    c0.158-0.961,0.298-1.922,0.438-2.883l0.01-0.072c0.058-0.369,0.104-0.729,0.143-1.035c0.097-0.697,0.192-1.406,0.261-2.045    c0.154-1.275,0.288-2.56,0.401-3.844c0.002-0.017,0.003-0.035,0.005-0.053c0,0,0-0.001,0-0.001v0    c0.005-0.053,0.01-0.105,0.015-0.161c0.015-0.139,0.024-0.269,0.029-0.386c0.064-0.671,0.115-1.348,0.168-2.078    c0.02-0.271,0.038-0.542,0.05-0.812c0.011-0.146,0.02-0.297,0.024-0.45c0.05-0.727,0.089-1.453,0.119-2.176l0.029-0.754    c0.028-0.634,0.048-1.276,0.066-1.912l0.007-0.209c0.001-0.05,0.002-0.101,0.002-0.151v-0.245c0.02-0.899,0.029-1.807,0.029-2.715    v-17.42v-20.025c0-2.761-2.238-5-5-5s-5,2.239-5,5v16.28l-36.086,10.565l-30.972-12.656c-2.557-1.044-5.476,0.181-6.521,2.737    c-1.044,2.557,0.182,5.476,2.737,6.52l32.59,13.317l37.394,15.284c-0.006,0.048-0.01,0.097-0.016,0.146    c-0.076,0.632-0.153,1.255-0.239,1.878c0,0.002,0,0.004,0,0.006c-0.003,0.02-0.005,0.037-0.008,0.057    c-0.034,0.27-0.067,0.531-0.117,0.854l-0.018,0.125c-0.13,0.896-0.26,1.791-0.405,2.676c-0.211,1.256-0.441,2.502-0.703,3.805    c-0.107,0.574-0.225,1.146-0.352,1.727c-0.009,0.043-0.016,0.078-0.025,0.121c0,0.002-0.001,0.006-0.002,0.008l-0.107,0.496    c-0.09,0.418-0.179,0.836-0.284,1.285c-0.13,0.566-0.271,1.145-0.418,1.75l-0.004,0.016c0,0,0,0,0,0.002    c-0.004,0.014-0.007,0.025-0.01,0.039c-0.111,0.473-0.231,0.943-0.352,1.416l-0.311,1.191c-0.736,2.732-1.571,5.465-2.481,8.119    c-0.02,0.059-0.039,0.117-0.057,0.176c0.018-0.057,0.035-0.115,0.036-0.119c-0.035,0.088-0.067,0.176-0.098,0.266    c-0.232,0.688-0.474,1.367-0.725,2.037c-0.001,0.002-0.001,0.002-0.001,0.004c-0.029,0.076-0.057,0.152-0.081,0.229l-0.697,1.84    c-0.658,1.695-1.343,3.361-2.035,4.951c-0.025,0.057-0.051,0.113-0.075,0.17c-0.009,0.02-0.018,0.039-0.025,0.059    c-0.423,0.961-0.856,1.904-1.31,2.871c-0.406,0.877-0.821,1.736-1.256,2.594c-0.001,0.004-0.002,0.006-0.003,0.008    c-0.002,0.004-0.004,0.008-0.006,0.012l-0.341,0.68c-0.278,0.553-0.57,1.1-0.858,1.646l-23.229-9.488c-0.001,0-0.001,0-0.002,0    l-81.704-33.388c-0.001,0-0.002-0.001-0.003-0.002l-61.267-25.034l56.673-25.456l38.986,15.932c0.619,0.253,1.26,0.373,1.89,0.373    c1.971,0,3.839-1.173,4.631-3.11c1.044-2.557-0.182-5.476-2.737-6.52l-30.176-12.332l69.993-31.438l41.185,4.047v13.056    c0,2.761,2.238,5,5,5s5-2.239,5-5v-17.589v-18.12c0-1.184-0.011-2.356-0.043-3.59l-0.017-0.516    c-0.012-0.367-0.023-0.733-0.043-1.102c-0.011-0.397-0.029-0.793-0.048-1.19l-0.008-0.174c-0.021-0.438-0.043-0.868-0.071-1.255    c-0.039-0.642-0.08-1.283-0.128-1.921c0-0.002,0-0.004,0-0.006c-0.002-0.026-0.004-0.051-0.006-0.077    c0-0.005-0.001-0.01-0.001-0.015l-0.002-0.023c-0.033-0.551-0.074-1.095-0.125-1.647c-0.003-0.028-0.013-0.054-0.017-0.082    l-0.039-0.484c0,0,0,0,0,0c0-0.001,0-0.002,0-0.003c-0.104-1.254-0.24-2.507-0.386-3.76c0,0-0.001-0.001-0.001-0.002    c0-0.001,0-0.003,0-0.005c-0.124-1.051-0.258-2.091-0.412-3.132c-0.063-0.509-0.139-1.008-0.223-1.507    c-0.056-0.393-0.118-0.779-0.183-1.171l-0.015-0.088c0-0.001,0-0.001,0-0.002c-0.002-0.014-0.005-0.027-0.007-0.041    c-0.069-0.448-0.146-0.897-0.215-1.276c-0.01-0.055-0.018-0.11-0.027-0.165l-0.001,0l-0.002-0.01h0.001h-0.001l-0.08-0.457    c-0.006-0.037-0.012-0.073-0.018-0.11c-0.183-1.027-0.383-2.053-0.594-3.08c-0.018-0.126-0.04-0.251-0.067-0.375l-0.331-1.513    c-0.156-0.707-0.313-1.404-0.476-2.091l-0.277-1.146c-0.563-2.328-1.223-4.728-1.957-7.134c-0.004-0.011-0.01-0.02-0.013-0.031    c-0.017-0.052-0.028-0.105-0.046-0.159c-0.004-0.013-0.008-0.025-0.012-0.038c-0.006-0.019-0.013-0.038-0.019-0.056    c0-0.001,0-0.002,0-0.003l-0.213-0.674c-0.133-0.421-0.268-0.843-0.406-1.265c-0.024-0.075-0.047-0.15-0.071-0.225    c-0.004-0.012-0.008-0.023-0.012-0.035c-0.003-0.009-0.005-0.017-0.008-0.025c0-0.001-0.001-0.001-0.001-0.002    c-0.108-0.347-0.223-0.694-0.347-1.041c-0.289-0.874-0.596-1.748-0.904-2.612c-0.016-0.046-0.031-0.091-0.048-0.137    c-0.001-0.004-0.002-0.008-0.003-0.012c-0.344-0.946-0.697-1.893-1.062-2.829c0,0-0.001-0.001-0.001-0.001    c-0.352-0.909-0.702-1.817-1.083-2.706c-0.142-0.359-0.286-0.717-0.447-1.076c-0.47-1.131-0.958-2.242-1.463-3.365    c-0.304-0.669-0.606-1.327-0.893-1.927l-0.011-0.022c-0.006-0.012-0.011-0.024-0.017-0.036c0-0.001-0.001-0.001-0.002-0.002    l-0.119-0.253c-0.014-0.031-0.028-0.063-0.043-0.093c-0.348-0.725-0.694-1.44-1.031-2.104c-0.63-1.269-1.223-2.416-1.812-3.507    c0,0,0,0,0,0c0,0,0,0-0.001-0.001c-0.002-0.005-0.005-0.01-0.008-0.016c-0.001-0.001-0.002-0.002-0.003-0.003    c-1.117-2.087-2.354-4.248-3.676-6.425c-0.009-0.015-0.017-0.03-0.025-0.044c-0.003-0.006-0.005-0.012-0.009-0.019    c-0.01-0.015-0.02-0.031-0.029-0.046l-0.146-0.236c-0.292-0.474-0.581-0.941-0.884-1.41c-0.388-0.628-0.797-1.266-1.181-1.848    c-0.744-1.149-1.446-2.189-2.144-3.18c-0.01-0.015-0.021-0.032-0.031-0.047c-1.964-2.839-4.101-5.675-6.329-8.403    c-0.359-0.445-0.729-0.902-1.047-1.273c-0.014-0.016-0.028-0.032-0.041-0.048c-0.007-0.009-0.015-0.018-0.021-0.026    c-0.001-0.001-0.002-0.002-0.003-0.003c-0.386-0.468-0.785-0.937-1.18-1.396l-0.051-0.059c-0.002-0.002-0.003-0.005-0.005-0.007    c-0.048-0.056-0.098-0.109-0.146-0.165l-0.379-0.436c-0.289-0.331-0.577-0.661-0.843-0.958c-1.708-1.935-3.527-3.87-5.573-5.927    c-0.473-0.473-0.956-0.947-1.46-1.439c-0.304-0.293-0.608-0.587-0.861-0.821c-1.166-1.114-2.371-2.225-3.59-3.308    c-0.544-0.482-1.09-0.963-1.632-1.424c-0.003-0.002-0.006-0.004-0.008-0.007c-0.002-0.001-0.004-0.003-0.005-0.004    c-0.001,0-0.001,0-0.001-0.001c-1.084-0.928-2.188-1.847-3.297-2.741c-1.276-1.03-2.327-1.852-3.259-2.547    c-0.007-0.005-0.015-0.011-0.021-0.016s-0.013-0.01-0.02-0.015c-0.376-0.282-0.753-0.561-1.129-0.84    c-0.219-0.162-0.437-0.328-0.655-0.488l0,0c-0.02-0.014-0.04-0.029-0.06-0.044c-0.059-0.043-0.109-0.076-0.17-0.117    c-0.041-0.032-0.082-0.063-0.124-0.093c-0.003-0.002-0.007-0.005-0.01-0.007c-0.001-0.001-0.001-0.001-0.002-0.002    c-0.745-0.542-1.489-1.083-2.164-1.538c-0.759-0.534-1.517-1.058-2.229-1.521c-0.664-0.447-1.33-0.883-2.005-1.32l-0.028-0.018    c-0.006-0.004-0.011-0.008-0.017-0.011c-0.001,0-0.002-0.001-0.003-0.001l-0.339-0.214c-0.043-0.03-0.088-0.059-0.132-0.088    c-0.682-0.437-1.363-0.862-1.985-1.234c-0.776-0.483-1.554-0.945-2.333-1.403c-0.541-0.318-1.088-0.63-1.641-0.945l-0.485-0.277    c-0.023-0.013-0.046-0.026-0.069-0.039c-0.067-0.041-0.136-0.081-0.206-0.119l-0.437-0.239c-0.417-0.228-0.836-0.453-1.256-0.678    c-0.132-0.071-0.262-0.142-0.394-0.213l-0.229-0.124c-0.007-0.003-0.014-0.007-0.02-0.01c-0.001,0-0.002-0.001-0.003-0.001    c0,0,0,0-0.001,0c-0.789-0.419-1.577-0.829-2.366-1.229c-0.001,0-0.001-0.001-0.002-0.001c-0.004-0.002-0.007-0.003-0.011-0.005    l0,0l0,0c-2.144-1.091-4.351-2.135-6.774-3.204l-1.171-0.51c0,0-0.001,0-0.002,0l-0.011-0.005c-0.462-0.2-0.931-0.393-1.397-0.585    l-0.362-0.149c-0.015-0.006-0.028-0.011-0.042-0.018c-0.003-0.001-0.005-0.002-0.007-0.003c-0.022-0.01-0.047-0.019-0.069-0.028    c-0.505-0.214-1.008-0.412-1.469-0.59c-0.025-0.01-0.053-0.02-0.078-0.03l-0.001,0l0,0c-2.597-1.035-5.368-2.028-8.172-2.932    c-0.007-0.002-0.015-0.004-0.021-0.007c-0.001,0-0.001-0.001-0.002-0.001c-0.05-0.017-0.097-0.031-0.146-0.047    c-0.59-0.196-1.183-0.377-1.715-0.536c-0.648-0.206-1.298-0.4-1.946-0.584l-0.508-0.145c-0.458-0.131-0.92-0.263-1.349-0.378    c-1.146-0.313-2.29-0.614-3.445-0.895c-0.094-0.022-0.188-0.042-0.281-0.06l0.063,0.011c-0.036-0.01-0.073-0.02-0.11-0.028    c-0.017-0.004-0.034-0.008-0.051-0.012c-0.002,0-0.003-0.001-0.005-0.001c-0.227-0.056-0.457-0.105-0.685-0.16    c-0.288-0.067-0.575-0.137-0.862-0.203l-0.117-0.027c-0.068-0.015-0.135-0.033-0.203-0.047c-0.068-0.017-0.139-0.03-0.207-0.046    l-0.041-0.009c-0.563-0.127-1.119-0.253-1.648-0.365c-0.515-0.112-1.038-0.216-1.554-0.319l-0.187-0.037    c-0.007-0.001-0.013-0.003-0.02-0.004c-0.001,0-0.002,0-0.003,0c-1.982-0.396-3.829-0.72-5.56-0.976    c-0.6-0.1-1.189-0.189-1.747-0.261c-0.906-0.125-1.813-0.25-2.663-0.348c-0.666-0.083-1.332-0.157-1.972-0.227    c-0.006-0.001-0.013-0.001-0.019-0.002c-0.003,0-0.006-0.001-0.009-0.001c-0.001,0-0.001,0-0.001,0    c-0.201-0.022-0.405-0.043-0.609-0.063l-0.532-0.054c-0.871-0.082-1.741-0.153-2.652-0.228c-1.063-0.08-2.126-0.15-3.197-0.202    c-0.155-0.013-0.296-0.019-0.424-0.021c-0.496-0.028-0.995-0.047-1.442-0.064c-0.005,0-0.01-0.001-0.015-0.001l0,0    c-0.001,0-0.001,0-0.002,0c-0.414-0.021-0.827-0.033-1.242-0.043c-0.29-0.014-0.581-0.02-0.871-0.024l-0.354-0.007    c-0.374-0.011-0.777-0.025-1.042-0.021c-0.022,0-0.045,0-0.067,0c-0.007,0-0.013,0-0.02,0c-0.001,0-0.001,0-0.002,0    c-2.39-0.039-4.692,0.002-6.84,0.093c-0.01,0-0.02,0.001-0.03,0.001c-0.006,0-0.013,0-0.019,0c-0.001,0-0.001,0-0.002,0    c-0.452,0.011-0.896,0.031-1.338,0.06c-0.001,0-0.002,0-0.003,0c-0.012,0-0.023,0.001-0.035,0.002c-0.007,0-0.015,0-0.022,0.001    c-0.661,0.03-1.322,0.061-1.982,0.109c-0.298,0.013-0.596,0.034-0.886,0.056c-0.872,0.063-1.744,0.126-2.594,0.209l-0.003,0    c-0.001,0-0.001,0-0.002,0l0,0l-0.604,0.058c-0.917,0.083-1.834,0.177-2.751,0.282c-0.096,0.011-0.191,0.025-0.286,0.042    c-0.002,0-0.005,0-0.008,0c0.049-0.008,0.092-0.016,0.083-0.016h0c-0.057,0.005-0.113,0.011-0.169,0.018    c-0.697,0.083-1.385,0.175-2.08,0.268l-0.21,0.028c-0.008,0.001-0.017,0.002-0.025,0.003c-0.001,0-0.001,0-0.002,0    c-0.771,0.103-1.552,0.216-2.323,0.338c-0.56,0.078-1.117,0.166-1.582,0.25c-0.028,0.004-0.057,0.01-0.085,0.014    c-0.001,0-0.001,0-0.002,0h0c-0.616,0.1-1.234,0.209-1.9,0.328l-1.324,0.251c-0.128,0.021-0.255,0.046-0.383,0.072    c-0.002,0-0.003,0-0.005,0c-0.013,0.002-0.026,0.005-0.039,0.008c-0.007,0.001-0.014,0.002-0.021,0.004    c-0.631,0.122-1.252,0.245-1.874,0.377c-0.058,0.012-0.174,0.04-0.231,0.054l-0.071,0.018c-0.905,0.189-1.803,0.39-2.716,0.602    c-0.012,0.003-0.024,0.005-0.037,0.008l0,0c-0.006,0.001-0.012,0.002-0.018,0.004c-1.001,0.238-1.992,0.485-2.99,0.743    c-1.836,0.472-3.701,0.998-5.532,1.56c-1.097,0.334-2.183,0.688-3.196,1.03c-0.018,0.006-0.036,0.013-0.054,0.019    c-0.002,0-0.004,0-0.007,0.001c-0.746,0.249-1.481,0.498-2.217,0.756c-0.001,0-0.002,0.001-0.003,0.001    c-0.004,0.001-0.009,0.003-0.013,0.004l-0.855,0.304c-0.036,0.013-0.073,0.026-0.109,0.039l-2.089,0.779    c-0.002,0.001-0.003,0.002-0.005,0.002c-0.019,0.007-0.038,0.014-0.057,0.021c-1.041,0.402-2.061,0.804-3.065,1.22    c0,0-0.001,0-0.001,0c-0.002,0.001-0.004,0.002-0.006,0.002c-0.005,0.002-0.01,0.004-0.015,0.006    c-0.253,0.104-0.517,0.22-0.771,0.327c-0.557,0.232-1.113,0.463-1.67,0.706c-0.002,0.001-0.004,0.002-0.006,0.003    c-0.01,0.004-0.02,0.008-0.03,0.013l-0.131,0.056c-0.112,0.047-0.222,0.096-0.332,0.145c0,0-0.001,0-0.002,0    c-0.007,0.003-0.013,0.006-0.021,0.009c-0.024,0.011-0.049,0.021-0.073,0.032c-0.78,0.344-1.55,0.688-2.315,1.042    c-0.92,0.423-1.83,0.856-2.665,1.275c-0.79,0.379-1.58,0.779-2.351,1.174c-0.991,0.506-1.972,1.032-3.013,1.592    c-0.736,0.409-1.471,0.817-2.21,1.238c-2.716,1.549-5.419,3.219-8.038,4.964c-0.713,0.476-1.405,0.95-2.107,1.436    c-0.053,0.037-0.214,0.152-0.266,0.191c-0.767,0.535-1.534,1.08-2.292,1.634c-0.032,0.022-0.064,0.045-0.096,0.068    c-0.753,0.549-1.507,1.109-2.251,1.679c-0.08,0.059-0.161,0.121-0.249,0.19c-0.042,0.031-0.084,0.062-0.125,0.094L176.327,43    c-0.604,0.47-1.208,0.94-1.802,1.41c0,0-0.001,0.001-0.001,0.001c-0.009,0.007-0.018,0.014-0.027,0.021    c-1.044,0.838-2.079,1.686-3.077,2.531c-0.527,0.442-1.054,0.896-1.525,1.309c-0.001,0.001-0.002,0.001-0.003,0.002    c-0.014,0.012-0.028,0.024-0.042,0.037c-0.001,0.001-0.002,0.003-0.003,0.004c-0.682,0.592-1.354,1.195-2.077,1.842    c-0.002,0.002-0.006,0.006-0.009,0.008c-0.007,0.006-0.014,0.012-0.021,0.019c-0.002,0.002-0.004,0.005-0.006,0.007    c-0.035,0.032-0.073,0.066-0.111,0.104c-0.01,0.009-0.02,0.018-0.03,0.027c-0.007,0.006-0.014,0.013-0.021,0.02    c-0.001,0.001-0.003,0.002-0.004,0.003c-0.245,0.225-0.486,0.456-0.73,0.683c-0.474,0.438-0.949,0.875-1.417,1.322    c-0.016,0.015-0.03,0.029-0.045,0.044c-0.003,0.002-0.005,0.004-0.008,0.007c0,0-0.001,0.001-0.001,0.001    c-0.038,0.036-0.076,0.072-0.113,0.109c-0.059,0.057-0.116,0.112-0.175,0.169c-0.659,0.627-1.314,1.264-1.914,1.872    c-0.715,0.705-1.42,1.43-2.115,2.155c-0.005,0.005-0.01,0.01-0.015,0.015c-0.004,0.004-0.008,0.008-0.012,0.012    c0,0-0.001,0.001-0.002,0.002c-0.053,0.054-0.105,0.109-0.163,0.171c-0.016,0.016-0.031,0.032-0.046,0.048    c-0.001,0.001-0.002,0.001-0.003,0.002c-0.005,0.005-0.01,0.01-0.015,0.016c-0.005,0.005-0.011,0.011-0.016,0.016    c-0.519,0.547-1.041,1.099-1.584,1.69c-0.039,0.043-0.08,0.084-0.119,0.127c-0.002,0.002-0.003,0.005-0.006,0.007    c-0.013,0.014-0.024,0.027-0.038,0.041c-0.129,0.145-0.258,0.281-0.396,0.426c-0.025,0.027-0.051,0.055-0.076,0.083    c-0.048,0.053-0.096,0.108-0.144,0.161c-0.537,0.595-1.063,1.18-1.527,1.723c-0.507,0.569-1.004,1.148-1.491,1.728    c-0.137,0.156-0.271,0.315-0.402,0.474l-0.113,0.136c0,0,0,0,0,0c0,0-0.001,0.001-0.002,0.002l-0.025,0.03    c-0.351,0.42-0.693,0.84-1.035,1.259l-0.243,0.301c-0.102,0.126-0.207,0.248-0.307,0.375c-0.006,0.007-0.009,0.016-0.015,0.023    l-0.317,0.392c-0.641,0.796-1.262,1.602-1.882,2.409l1.18,0.908c0.159,1.253,0.786,2.447,1.855,3.292    c0.918,0.726,2.011,1.078,3.097,1.078c0.223,0,0.445-0.02,0.666-0.049l1.129,0.868c0.575-0.748,1.149-1.495,1.751-2.242    l0.739-0.914c0.248-0.308,0.498-0.613,0.751-0.916c0.097-0.117,0.195-0.239,0.291-0.354l0.175-0.21    c0.071-0.086,0.143-0.175,0.219-0.259c0.035-0.039,0.069-0.078,0.103-0.119c0.219-0.261,0.44-0.521,0.671-0.79    c0.229-0.265,0.463-0.534,0.709-0.81c0.375-0.431,0.763-0.864,1.147-1.294c0.14-0.156,0.276-0.314,0.418-0.471    c0.185-0.196,0.358-0.381,0.494-0.535c0.52-0.567,1.048-1.125,1.577-1.682l0-0.001l0.14-0.146    c0.025-0.026,0.051-0.052,0.076-0.078c0.637-0.665,1.283-1.331,1.987-2.026c0.658-0.666,1.334-1.313,2.01-1.961    c0.021-0.021,0.042-0.041,0.063-0.062c0.666-0.636,1.34-1.264,2.015-1.882c0.002-0.002,0.004-0.005,0.007-0.008    c0.064-0.058,0.127-0.114,0.196-0.181c0.256-0.229,0.513-0.459,0.772-0.69l140.658-17.714c0.284,0.148,0.566,0.297,0.845,0.445    l0.206,0.111c0.644,0.347,1.287,0.694,1.923,1.042c0.1,0.06,0.2,0.117,0.298,0.17l0.083,0.047    c0.628,0.351,1.248,0.709,1.865,1.073c0.713,0.417,1.416,0.835,2.188,1.314c0.609,0.365,1.207,0.74,1.807,1.124c0,0,0,0,0.001,0    c0.116,0.077,0.233,0.152,0.353,0.227l0.128,0.081c0.624,0.403,1.239,0.807,1.87,1.231c0.685,0.457,1.36,0.913,2.077,1.418    c0.474,0.327,0.94,0.664,1.407,1c0.199,0.144,0.396,0.278,0.596,0.423c0.001,0,0.002,0.001,0.002,0.001    c0.107,0.08,0.217,0.16,0.325,0.233l0,0c0.017,0.012,0.033,0.024,0.05,0.037c0.543,0.399,1.086,0.806,1.597,1.189    c0.006,0.005,0.012,0.009,0.018,0.013c1.015,0.776,2.032,1.562,3.032,2.37c0.007,0.005,0.013,0.01,0.02,0.015    c0.001,0.001,0.003,0.001,0.004,0.002c0,0,0,0.001,0.001,0.001c1.041,0.839,2.071,1.697,3.098,2.575    c0.501,0.427,0.994,0.863,1.486,1.299c1.122,0.997,2.238,2.026,3.37,3.106c0.256,0.238,0.512,0.484,0.748,0.712    c0.456,0.446,0.912,0.893,1.35,1.33c1.895,1.905,3.581,3.699,5.18,5.509c0.243,0.272,0.486,0.551,0.73,0.831    c0.022,0.026,0.045,0.052,0.068,0.078l0.504,0.578c0.37,0.432,0.747,0.871,1.169,1.384c0.319,0.374,0.629,0.757,0.951,1.158    c2.017,2.468,3.933,5.005,5.706,7.554L242.881,93.682c0,0,0,0-0.001,0l-29.08,3.664c-2.74,0.345-4.681,2.846-4.336,5.586    c0.345,2.74,2.846,4.675,5.586,4.336l28.524-3.594l88.162,8.665c0.001,0,0.001,0,0.002,0l47.24,4.639    c0.314,1.141,0.609,2.273,0.879,3.386l0.266,1.1c0.154,0.644,0.297,1.286,0.438,1.927l0.298,1.362l0.011,0.072    c0.012,0.069,0.024,0.138,0.038,0.206c0.197,0.959,0.387,1.919,0.557,2.879c0.021,0.125,0.043,0.25,0.066,0.375l0.042,0.243    c0.073,0.413,0.147,0.834,0.218,1.291l0.025,0.156c0.056,0.335,0.11,0.666,0.156,1.004c0.008,0.051,0.016,0.103,0.024,0.154    c0.067,0.396,0.127,0.792,0.177,1.195c0.005,0.041,0.011,0.081,0.017,0.121c0.142,0.958,0.265,1.914,0.379,2.879    c0,0.001,0,0.002,0,0.002c0.131,1.122,0.251,2.243,0.347,3.364c0.004,0.05,0.01,0.096,0.014,0.146l0.171,2.095    c0.048,0.625,0.086,1.25,0.128,1.928c0.026,0.362,0.043,0.715,0.063,1.123l0.005,0.106c0.016,0.346,0.032,0.692,0.04,1.038    c0.002,0.055,0.004,0.109,0.007,0.164c0.018,0.315,0.027,0.626,0.037,0.938l0.018,0.522c0.028,1.087,0.037,2.174,0.037,3.271    v12.604l-41.53-4.081L294.1,153.85c-2.773-0.268-5.196,1.739-5.465,4.487c-0.271,2.748,1.738,5.195,4.486,5.465l29.102,2.859    l-64.576,29.005c-0.015,0.006-0.028,0.013-0.043,0.019l-69.205,31.084c-0.034,0.014-0.066,0.03-0.1,0.045l-53.634,24.091    l-0.913-0.141c-0.035-0.467-0.068-0.945-0.099-1.456c-0.035-0.473-0.061-0.953-0.086-1.428l-0.006-0.113    c-0.038-0.779-0.077-1.568-0.096-2.348c0-0.027-0.003-0.09-0.004-0.117c-0.007-0.16-0.015-0.318-0.015-0.471    c0-0.067-0.001-0.133-0.004-0.2c-0.018-0.433-0.026-0.857-0.026-1.29c0-0.025-0.001-0.112-0.001-0.137    c-0.009-0.615-0.019-1.239-0.019-1.853v-39.214l98.715-44.33l35.471,3.484c2.769,0.264,5.195-1.74,5.465-4.487    c0.271-2.748-1.738-5.195-4.486-5.465l-36.795-3.614c0,0,0,0,0,0l-97.802-9.612c0.13-1.363,0.28-2.702,0.451-4.021    c0.063-0.486,0.126-0.972,0.211-1.551c0.062-0.473,0.131-0.946,0.21-1.411c0.006-0.034,0.011-0.068,0.017-0.102    c0.153-1.025,0.326-2.05,0.51-3.091c0.151-0.865,0.32-1.73,0.512-2.652c0.122-0.624,0.251-1.247,0.402-1.919l0.04-0.187    c0.069-0.323,0.138-0.65,0.215-0.971c0-0.004,0.022-0.097,0.023-0.101c0.146-0.621,0.292-1.242,0.471-1.949    c0.101-0.43,0.21-0.859,0.322-1.285c0.16-0.62,0.329-1.249,0.504-1.882l53.125-6.693c2.74-0.345,4.681-2.846,4.336-5.586    c-0.346-2.74-2.856-4.677-5.586-4.336l-48.449,6.104c0.166-0.441,0.317-0.876,0.496-1.326c0.413-1.074,0.844-2.14,1.29-3.205    c0.253-0.61,0.517-1.22,0.789-1.831c0-0.001,0-0.003,0.001-0.004c0.018-0.04,0.035-0.08,0.052-0.12    c0.093-0.225,0.195-0.441,0.295-0.658c0.015-0.031,0.029-0.063,0.042-0.094c0.378-0.861,0.776-1.713,1.194-2.587    c0.324-0.687,0.658-1.373,1.007-2.072c0.549-1.106,1.116-2.195,1.692-3.274c1.308-2.123,0.854-4.937-1.146-6.529    c-2.161-1.72-5.306-1.362-7.026,0.797c-0.26,0.326-0.43,0.616-0.54,0.82c-0.016,0.029-0.032,0.058-0.048,0.087    c-0.644,1.205-1.277,2.419-1.883,3.642c-0.377,0.754-0.743,1.507-1.088,2.239c-0.445,0.932-0.88,1.865-1.295,2.807    c-0.14,0.302-0.278,0.604-0.409,0.916c-0.3,0.666-0.591,1.35-0.867,2.015c0,0,0,0,0,0.001c-0.001,0.003-0.002,0.006-0.004,0.009    c0,0,0,0.001,0,0.002c-0.478,1.141-0.943,2.292-1.368,3.397c-0.411,1.033-0.809,2.098-1.159,3.099    c-0.393,1.07-0.763,2.141-1.1,3.18c-0.353,1.061-0.695,2.121-1.019,3.191c0,0.001-0.001,0.003-0.001,0.004    c-0.001,0.004-0.002,0.008-0.003,0.012c0,0,0,0.001,0,0.001v0c-0.551,1.813-1.061,3.62-1.511,5.362    c-0.13,0.5-0.26,1.01-0.356,1.426c-0.17,0.669-0.331,1.348-0.509,2.104c-0.094,0.397-0.181,0.802-0.266,1.202l-0.028,0.132    c-0.161,0.717-0.31,1.433-0.436,2.083c-0.201,0.964-0.392,1.939-0.558,2.897c-0.195,1.099-0.38,2.198-0.545,3.296    c-0.098,0.578-0.185,1.165-0.248,1.664c-0.081,0.545-0.152,1.09-0.233,1.711c-0.281,2.167-0.515,4.457-0.698,6.822    c-0.04,0.541-0.08,1.082-0.111,1.631c-0.02,0.23-0.034,0.463-0.047,0.695l-0.015,0.25c0,0.007,0.001,0.013,0,0.02    c0,0.006-0.002,0.013-0.003,0.019c-0.083,1.41-0.135,2.819-0.177,4.238c0,0.002,0,0.004,0,0.006c0,0.001,0,0.003,0,0.005    c-0.031,1.145-0.042,2.3-0.042,3.455v48.88v42.45c0,0.664,0.01,1.337,0.02,1.99c0,0.537,0.01,1.064,0.03,1.601    c0.002,0.25,0.012,0.503,0.021,0.722c0.021,0.86,0.063,1.731,0.106,2.622l0.008,0.143c0.029,0.534,0.06,1.075,0.094,1.548    c0.09,1.48,0.197,2.826,0.324,4.101l0.029,0.292c0.025,0.265,0.049,0.529,0.076,0.792l0.046,0.446    c0.001,0.006,0.003,0.012,0.003,0.018c0.001,0.01,0,0.02,0.001,0.029c0.134,1.224,0.278,2.451,0.443,3.666c0,0,0,0.002,0,0.004    c0,0.004,0.001,0.008,0.002,0.012c0,0.004,0,0.006,0.001,0.01c0,0,0.001,0.002,0.001,0.004c0.121,0.914,0.261,1.83,0.406,2.771    c0,0.002,0,0.004,0,0.006c0.002,0.012,0.004,0.021,0.005,0.033s0.003,0.021,0.005,0.033c0.041,0.254,0.085,0.51,0.126,0.764    c0.078,0.475,0.152,0.947,0.234,1.424l0.013,0.07c0,0.002,0,0.004,0.001,0.006c0.003,0.021,0.006,0.041,0.01,0.061l0.049,0.277    c0.118,0.662,0.236,1.33,0.363,1.99c0.009,0.047,0.019,0.094,0.029,0.141l0.083,0.418c0.001,0.006,0.001,0.012,0.002,0.018    c0.129,0.652,0.26,1.305,0.396,1.959l0.035,0.17c0.001,0.008,0.002,0.012,0.004,0.02c0.003,0.016,0.006,0.029,0.009,0.045    c0,0.002,0.001,0.004,0.001,0.004c0.018,0.084,0.034,0.158,0.061,0.252l0.065,0.307c0.146,0.666,0.301,1.332,0.458,1.998    c0,0.002,0,0.002,0,0.004c0.001,0.002,0.002,0.006,0.002,0.008c0.194,0.818,0.398,1.645,0.609,2.488l0,0c0,0.002,0,0.002,0,0.002    c0,0.002,0.001,0.004,0.001,0.006c0.01,0.041,0.021,0.08,0.032,0.119c0.416,1.627,0.866,3.254,1.331,4.807    c0.003,0.012,0.006,0.021,0.01,0.033c0.002,0.008,0.005,0.016,0.007,0.025c0.128,0.42,0.261,0.842,0.391,1.262    c0.12,0.387,0.231,0.777,0.358,1.16c0.255,0.834,0.528,1.654,0.79,2.398c0.003,0.008,0.005,0.018,0.008,0.025    c0.272,0.805,0.555,1.621,0.842,2.412c0.059,0.164,0.121,0.326,0.18,0.49c0.168,0.463,0.336,0.924,0.508,1.383l0.162,0.432    c0.027,0.072,0.056,0.146,0.087,0.219c0.101,0.266,0.204,0.527,0.307,0.791c0.038,0.096,0.075,0.195,0.113,0.293    c0.153,0.387,0.306,0.766,0.456,1.129c0.291,0.727,0.592,1.453,0.893,2.168c0,0.002,0.001,0.002,0.002,0.004    s0.001,0.004,0.002,0.006c0.684,1.617,1.409,3.238,2.156,4.814c0,0,0.001,0.002,0.001,0.002c0.361,0.764,0.731,1.525,1.102,2.277    c0,0.002,0.001,0.002,0.001,0.004c0.787,1.602,1.649,3.258,2.665,5.115l0.339,0.607c0.253,0.455,0.507,0.91,0.765,1.355    l0.194,0.34c0.378,0.656,0.758,1.318,1.103,1.881c0.33,0.564,0.671,1.129,1.022,1.684c0.164,0.271,0.327,0.533,0.471,0.758    c0.941,1.51,1.843,2.898,2.76,4.248c0.311,0.457,0.622,0.912,0.904,1.316c0.203,0.297,0.411,0.588,0.621,0.881l0.426,0.598    c0.253,0.355,0.509,0.715,0.777,1.068c0.316,0.441,0.64,0.879,0.921,1.248c0.317,0.434,0.654,0.877,0.992,1.311    c0.148,0.199,0.297,0.391,0.455,0.592c0.341,0.447,0.689,0.885,0.998,1.26l0.007,0.01c0,0,0.001,0.002,0.002,0.002    c1.061,1.328,2.155,2.652,3.251,3.934c1.203,1.404,2.327,2.664,3.375,3.787c0.008,0.008,0.017,0.018,0.024,0.025    c0.012,0.012,0.022,0.025,0.034,0.037c0.431,0.461,0.878,0.934,1.329,1.408c0.141,0.145,0.274,0.295,0.416,0.439    c0.004,0.004,0.008,0.008,0.012,0.012c0.001,0.002,0.002,0.004,0.003,0.004c0.59,0.611,1.179,1.221,1.789,1.83    c0.601,0.602,1.212,1.203,1.823,1.793c0,0,0,0,0.001,0c0.603,0.584,1.217,1.166,1.846,1.752c0.001,0.002,0.002,0.004,0.003,0.004    c1.256,1.174,2.549,2.33,3.844,3.438c0.003,0.004,0.006,0.006,0.009,0.01c0.597,0.51,1.203,1.02,1.809,1.529l0.1,0.086    c0.01,0.008,0.084,0.068,0.094,0.076c0.418,0.348,0.843,0.697,1.308,1.066c0.045,0.037,0.09,0.076,0.136,0.111    c0.003,0.004,0.007,0.004,0.011,0.008c0.017,0.014,0.032,0.025,0.049,0.039l0.127,0.104c0.086,0.07,0.174,0.139,0.262,0.209    c0.002,0,0.003,0.002,0.005,0.004c0.009,0.008,0.019,0.016,0.028,0.023c0.002,0,0.003,0.002,0.005,0.004    c0.592,0.473,1.201,0.941,1.807,1.41c0.125,0.096,0.245,0.195,0.371,0.289c0.018,0.016,0.037,0.027,0.056,0.043    c0.652,0.5,1.311,0.99,1.901,1.428l0.071,0.053c0.014,0.01,0.027,0.021,0.041,0.031c0,0,0.001,0,0.002,0l0.276,0.205    c0.03,0.023,0.062,0.047,0.092,0.07c0.014,0.01,0.026,0.02,0.04,0.029c0.675,0.496,1.348,0.973,1.969,1.402    c0.776,0.555,1.553,1.096,2.299,1.59c0.717,0.484,1.436,0.961,2.142,1.41c2.361,1.523,4.827,3.01,7.362,4.436    c0.687,0.379,1.375,0.758,2.048,1.121c0.004,0.002,0.007,0.004,0.011,0.006c0.001,0,0.002,0,0.003,0c0,0,0,0.002,0,0.002    c0.613,0.33,1.243,0.662,1.886,0.994c-7.988,1.969-15.782,4.656-23.298,8.072c-0.019,0.008-0.039,0.012-0.057,0.02    c-1.068,0.482-2.126,0.984-3.188,1.504c-0.773,0.383-1.547,0.764-2.284,1.143c-0.005,0.004-0.01,0.006-0.016,0.008    c-0.003,0.002-0.006,0.004-0.01,0.006c0,0-0.001,0-0.001,0c-0.916,0.463-1.82,0.938-2.656,1.4    c-0.562,0.301-1.114,0.602-1.666,0.912c-0.029,0.014-0.055,0.031-0.083,0.047c-0.002,0.002-0.005,0.002-0.007,0.004    c0,0,0,0-0.001,0c-0.128,0.068-0.253,0.139-0.375,0.213c-0.349,0.193-0.695,0.387-1.013,0.574    c-0.779,0.445-1.559,0.902-2.353,1.379c-0.008,0.006-0.017,0.012-0.025,0.016c0,0,0,0,0,0c-0.395,0.242-0.788,0.488-1.183,0.73    c-0.366,0.229-0.737,0.453-1.102,0.682c-0.001,0-0.001,0-0.002,0.002c-0.002,0-0.004,0.002-0.006,0.002    c0,0.002-0.001,0.002-0.001,0.002c-0.75,0.469-1.499,0.947-2.238,1.445c-0.359,0.23-0.715,0.467-1.009,0.67    c-1.488,0.992-3.005,2.053-4.511,3.156c-0.022,0.016-0.042,0.033-0.065,0.049c-0.001,0.002-0.003,0.002-0.004,0.002    c-0.707,0.525-1.415,1.053-2.078,1.563c-0.521,0.393-1.03,0.785-1.526,1.178c-0.003,0.004-0.006,0.006-0.009,0.008    c-0.002,0.002-0.003,0.002-0.005,0.004c0,0-0.001,0.002-0.001,0.002c-0.868,0.682-1.715,1.363-2.544,2.049l-0.988,0.82    c-0.026,0.021-0.052,0.043-0.078,0.064c-0.62,0.529-1.23,1.059-1.848,1.594c-0.627,0.545-1.245,1.102-1.862,1.658    c-0.017,0.016-0.078,0.07-0.095,0.086c-0.091,0.084-0.174,0.164-0.265,0.24c-0.045,0.039-0.089,0.078-0.133,0.119    c-0.649,0.598-1.289,1.197-1.929,1.805c0,0,0,0-0.001,0.002c-0.005,0.004-0.011,0.01-0.017,0.016    c-0.774,0.742-1.538,1.486-2.292,2.24c-0.092,0.092-0.174,0.176-0.258,0.262c-0.046,0.043-0.091,0.088-0.135,0.133    c-0.624,0.633-1.248,1.268-1.862,1.912c-0.004,0.006-0.007,0.01-0.012,0.016c-0.004,0.004-0.01,0.008-0.015,0.012l-0.415,0.441    c-0.48,0.51-0.959,1.02-1.411,1.518l-0.35,0.381c-0.512,0.564-1.024,1.141-1.498,1.684c-0.001,0-0.001,0.002-0.002,0.002    s-0.001,0-0.001,0.002c-0.533,0.602-1.057,1.213-1.588,1.832l-0.076,0.09c-0.039,0.045-0.077,0.092-0.114,0.139l-0.075,0.094    c-0.018,0.021-0.036,0.043-0.054,0.064c-0.566,0.666-1.114,1.33-1.627,1.975c0,0-0.001,0.002-0.001,0.002l0,0    c-0.008,0.01-0.016,0.018-0.023,0.027c-0.188,0.232-0.364,0.463-0.549,0.693c-0.391,0.488-0.783,0.975-1.167,1.473    c-0.001,0.002-0.002,0.004-0.004,0.006c-0.008,0.012-0.017,0.021-0.024,0.031c-0.099,0.131-0.166,0.273-0.25,0.41    c-0.089,0.145-0.193,0.283-0.266,0.436c-0.053,0.109-0.083,0.225-0.127,0.338c-0.366,0.275-0.711,0.588-0.999,0.975    c-0.554,0.742-1.099,1.496-1.633,2.25c-1.596,2.254-1.063,5.373,1.189,6.971c0.878,0.621,1.887,0.92,2.886,0.92    c1.567,0,3.11-0.734,4.084-2.109c0.486-0.688,0.982-1.373,1.487-2.051c0.264-0.354,0.455-0.736,0.613-1.127    c0.048-0.037,0.099-0.068,0.146-0.107c0.07-0.057,0.136-0.123,0.204-0.184c0.077-0.07,0.156-0.137,0.229-0.213    c0.063-0.064,0.121-0.139,0.182-0.209c0.065-0.074,0.135-0.145,0.196-0.225c0.508-0.658,1.015-1.307,1.592-2.01    c0.524-0.658,1.067-1.305,1.611-1.953c0.022-0.027,0.044-0.053,0.065-0.08l0.097-0.119c0.495-0.578,0.983-1.148,1.504-1.736    c0.458-0.525,0.926-1.051,1.394-1.566c0,0,0,0,0-0.002l0.33-0.359c0.431-0.475,0.869-0.939,1.308-1.404l0.409-0.436    c0.189-0.199,0.379-0.396,0.572-0.596l91.723-11.543c0,0,0,0,0,0l107.033-13.482c0.007,0.002,0.014,0.006,0.021,0.01l0.658,0.326    c0.158,0.082,0.315,0.162,0.475,0.244l0.507,0.26c0.447,0.227,0.889,0.465,1.329,0.699l0.557,0.297    c1.01,0.543,2.01,1.094,3.01,1.678c0.271,0.156,0.54,0.314,0.81,0.473c0.31,0.178,0.618,0.357,0.924,0.539    c0.061,0.039,0.123,0.078,0.187,0.115c0,0.002,0.001,0.002,0.002,0.002c0.977,0.584,1.952,1.188,2.909,1.799    c0.047,0.031,0.095,0.061,0.144,0.09c0.08,0.055,0.161,0.109,0.245,0.16c0.379,0.232,0.759,0.484,1.199,0.781    c0.851,0.553,1.689,1.125,2.577,1.74c0.356,0.24,0.721,0.5,1.132,0.797c1.207,0.85,2.455,1.771,3.824,2.828    c1.28,0.982,2.313,1.807,3.29,2.627c1.182,0.971,2.415,2.025,3.639,3.111l0.9,0.82c0.727,0.65,1.444,1.322,2.178,2.025    c0.709,0.672,1.408,1.352,2.146,2.1c0.7,0.689,1.381,1.391,2.064,2.111c4.144,4.344,7.992,9.01,11.467,13.904l-14.654,1.844    c0,0,0,0-0.001,0l-41.91,5.277c-2.739,0.346-4.681,2.848-4.336,5.586c0.345,2.74,2.844,4.68,5.586,4.336l40.932-5.154    l25.367,6.863c0.027,0.059,0.056,0.115,0.083,0.172c0.001,0.004,0.003,0.006,0.004,0.008c0.006,0.014,0.013,0.027,0.019,0.039    c0.778,1.629,1.555,3.379,2.36,5.318c0.209,0.516,0.42,1.031,0.62,1.547c0.024,0.063,0.051,0.127,0.078,0.188    c0.077,0.178,0.148,0.359,0.219,0.539l0.076,0.191c0.242,0.619,0.475,1.238,0.706,1.857c0.001,0.002,0.001,0.002,0.002,0.004    c0.002,0.006,0.005,0.014,0.008,0.021c0.062,0.16,0.124,0.32,0.206,0.557c0.22,0.6,0.438,1.201,0.657,1.834    c0.381,1.088,0.743,2.186,1.087,3.281c0.002,0.006,0.011,0.033,0.019,0.059c0.152,0.479,0.299,0.955,0.444,1.434l0.047,0.152    c0.001,0.004,0.002,0.006,0.003,0.008c0.004,0.014,0.008,0.027,0.013,0.041c0.063,0.199,0.117,0.389,0.173,0.586    c0.01,0.033,0.019,0.064,0.028,0.098c0.185,0.605,0.358,1.213,0.523,1.818c0.006,0.021,0.012,0.041,0.018,0.063    c0.608,2.166,1.161,4.396,1.698,6.861c0.113,0.502,0.217,0.994,0.314,1.465c0.173,0.855,0.336,1.701,0.495,2.584    c0.115,0.619,0.229,1.242,0.332,1.891l0.006,0.033l-82.402-5.549l-70.779-19.154l52.658-6.633    c2.739-0.344,4.681-2.846,4.336-5.586c-0.345-2.738-2.842-4.674-5.586-4.336l-77.803,9.801l-100.172,12.617l-14.675-0.988    c0.123-0.354,0.249-0.715,0.384-1.094c0.146-0.43,0.302-0.852,0.477-1.322c0.236-0.662,0.491-1.322,0.751-1.996    c0.245-0.641,0.5-1.281,0.764-1.922c0.043-0.107,0.054-0.131,0.09-0.24l0.045-0.109c0.279-0.674,0.558-1.348,0.847-2.012h0    l0.309-0.717c0.288-0.652,0.585-1.313,0.882-1.955c0-0.002,0-0.002,0-0.002c0.006-0.012,0.01-0.023,0.016-0.035    c0.325-0.717,0.66-1.434,1.003-2.15c0.013-0.027,0.018-0.057,0.031-0.084c0.029-0.057,0.065-0.107,0.093-0.166    c0.302-0.641,0.622-1.279,0.951-1.91c1.277-2.449,0.328-5.469-2.121-6.746c-2.45-1.277-5.469-0.328-6.746,2.121    c-0.391,0.748-0.771,1.508-1.129,2.268c-0.012,0.027-0.017,0.055-0.028,0.08c-0.02,0.039-0.048,0.072-0.067,0.111    c-0.376,0.783-0.741,1.566-1.065,2.281c-0.004,0.01-0.008,0.02-0.012,0.027c-0.001,0.002-0.001,0.002-0.002,0.004    c-0.323,0.697-0.646,1.416-0.957,2.121l-0.332,0.766c-0.311,0.717-0.612,1.443-0.914,2.172c-0.066,0.16-0.131,0.32-0.19,0.482    c-0.279,0.68-0.549,1.361-0.804,2.029c0,0.002-0.001,0.002-0.002,0.004c-0.001,0.004-0.002,0.006-0.003,0.01c0,0,0,0,0,0.002    c-0.284,0.732-0.566,1.469-0.81,2.152c-0.185,0.498-0.369,0.998-0.519,1.441c-0.249,0.697-0.489,1.395-0.728,2.094    c-0.005,0.014-0.032,0.092-0.037,0.105c-0.002,0.008-0.004,0.014-0.006,0.021h0c-0.064,0.195-0.125,0.391-0.188,0.584    c-0.158,0.488-0.316,0.979-0.471,1.469l-0.022,0.072c-0.003,0.008-0.005,0.016-0.008,0.023c0,0,0,0,0,0.002l-0.001,0.004    c-0.33,1.053-0.65,2.115-0.959,3.178c-0.001,0.004-0.001,0.008-0.002,0.012c-0.001,0.004-0.004,0.008-0.005,0.012l-0.126,0.441    c-0.21,0.748-0.403,1.451-0.58,2.119c-0.04,0.148-0.075,0.289-0.113,0.434c-0.047,0.18-0.096,0.363-0.141,0.539    c-0.083,0.322-0.162,0.637-0.238,0.945c0,0.002,0,0.004,0,0.006c-0.689,2.746-1.289,5.514-1.784,8.223    c-0.051,0.254-0.097,0.504-0.141,0.75c-0.006,0.033-0.013,0.066-0.019,0.098c-0.051,0.289-0.097,0.566-0.139,0.824    c-0.128,0.699-0.237,1.396-0.339,2.063c-0.095,0.588-0.179,1.178-0.261,1.748c0,0.002,0,0.004-0.001,0.008    c0,0.002-0.001,0.006-0.001,0.01v0.002c-0.115,0.787-0.22,1.574-0.313,2.354c-0.083,0.686-0.167,1.371-0.239,2.055    c0,0.002,0,0.002,0,0.002c-0.073,0.684-0.145,1.379-0.201,1.992c-0.066,0.627-0.121,1.254-0.162,1.84    c-0.118,1.49-0.213,3.043-0.288,4.688c-0.001,0.029-0.001,0.059-0.003,0.088c0,0.002-0.001,0.004-0.001,0.006l-0.022,0.594    c-0.014,0.318-0.031,0.637-0.038,0.955c-0.007,0.137-0.009,0.273-0.011,0.408l0,0c0,0.012,0,0.023-0.001,0.035    c0,0.014-0.001,0.027-0.001,0.041c0,0.002,0,0.004,0,0.004c-0.018,0.586-0.029,1.18-0.04,1.852c0,0.004-0.001,0.102-0.001,0.105    c-0.01,0.672-0.019,1.346-0.019,2.018c0,2.762,2.239,5,5,5h312.83c2.762,0,5-2.238,5-5    C417.415,491.152,417.405,490.303,417.396,489.463z M203.833,37.634c0.81-0.405,1.621-0.792,2.445-1.171    c0.735-0.339,1.471-0.667,2.217-0.997c0.013-0.006,0.09-0.041,0.104-0.047l0.406-0.174c0.747-0.326,1.493-0.641,2.255-0.954    c0.947-0.393,1.895-0.765,2.821-1.124l1.868-0.697c0.065-0.024,0.129-0.048,0.193-0.072l0.844-0.3    c0.677-0.239,1.356-0.468,2.042-0.697c0.011-0.004,0.021-0.007,0.032-0.011c0.994-0.334,1.988-0.66,3.002-0.969    c0.847-0.26,1.7-0.511,2.552-0.751c0.851-0.24,1.702-0.469,2.545-0.686c0,0,0,0,0,0c0.001,0,0.002,0,0.003,0    c0.939-0.242,1.868-0.475,2.789-0.693c0.862-0.201,1.724-0.393,2.596-0.575c0.064-0.014,0.187-0.042,0.25-0.058l0.063-0.015    c0.564-0.12,1.128-0.231,1.702-0.342c0.019-0.004,0.058-0.012,0.095-0.02c0.056-0.009,0.111-0.019,0.167-0.029l1.36-0.259    c0.592-0.105,1.185-0.21,1.865-0.321c0.434-0.078,0.876-0.147,1.318-0.208c0.035-0.005,0.07-0.01,0.105-0.016    c0.707-0.113,1.423-0.217,2.134-0.311l0.006-0.001c0.001,0,0.002,0,0.002,0c0.705-0.095,1.419-0.191,2.133-0.277    c0.129-0.012,0.255-0.026,0.38-0.043c0.725-0.082,1.449-0.154,2.173-0.222c0.117-0.011,0.229-0.025,0.347-0.036l0.628-0.06    c0.003,0,0.006,0,0.009,0c0.552-0.053,1.101-0.092,1.65-0.133c0.241-0.018,0.477-0.041,0.72-0.058    c0.207-0.015,0.414-0.032,0.621-0.04c0.065-0.002,0.13-0.006,0.196-0.011c0.609-0.046,1.219-0.073,1.829-0.101    c0.039-0.002,0.079-0.004,0.118-0.007c0.362-0.025,0.725-0.042,1.095-0.049c0.035-0.001,0.069-0.002,0.103-0.003    c1.519-0.064,3.088-0.096,4.798-0.096c0.534-0.006,1.052,0,1.67,0.01c0.274,0,0.558,0.009,0.868,0.018l0.441,0.009    c0.201,0.003,0.402,0.006,0.604,0.017c0.044,0.002,0.088,0.004,0.132,0.005c0.347,0.009,0.692,0.017,1.103,0.038    c0.487,0.019,0.974,0.037,1.45,0.065c0.048,0.002,0.104,0.004,0.159,0.006c0.039,0.003,0.079,0.005,0.118,0.007c0,0,0,0,0.001,0    c0.006,0,0.012,0.001,0.018,0.001c1.015,0.047,2.022,0.114,2.999,0.188c0.102,0.008,0.199,0.017,0.301,0.025    c0.731,0.061,1.468,0.121,2.198,0.19h0.001l0.995,0.103c0.614,0.067,1.228,0.134,1.841,0.211c0,0,0.001,0,0.002,0    c0.015,0.002,0.028,0.003,0.044,0.005c0.824,0.096,1.658,0.211,2.534,0.332c0.468,0.061,0.935,0.13,1.395,0.208    c0.043,0.007,0.079,0.012,0.123,0.02c1.656,0.246,3.349,0.542,5.175,0.908l0.191,0.038c0.46,0.092,0.926,0.185,1.419,0.292    c0.514,0.108,1.021,0.223,1.533,0.339l0.54,0.124c0.465,0.106,0.935,0.214,1.398,0.327c0.019,0.004,0.036,0.009,0.055,0.013    c0.002,0,0.003,0,0.005,0.001c0.119,0.031,0.241,0.06,0.362,0.086c1.049,0.255,2.089,0.529,3.153,0.819l1.769,0.498    c0.551,0.156,1.103,0.322,1.727,0.519c0.552,0.166,1.092,0.33,1.642,0.513c0.019,0.006,0.034,0.01,0.052,0.017    c0.405,0.13,0.791,0.272,1.19,0.405l-106.406,13.4c1.843-1.183,3.71-2.335,5.593-3.41c0.7-0.398,1.399-0.786,2.098-1.175    c0.904-0.485,1.809-0.971,2.73-1.442C202.338,38.371,203.048,38.011,203.833,37.634z M361.206,88.864l-29.816,13.392    l-42.993-4.226L361.206,88.864z M370.839,95.5c0.17,0.348,0.342,0.701,0.52,1.068l0.152,0.323c0.286,0.602,0.563,1.203,0.84,1.814    c0.001,0.001,0.002,0.002,0.002,0.004c0.467,1.039,0.924,2.078,1.363,3.136c0.022,0.054,0.046,0.108,0.07,0.162    c0.113,0.248,0.209,0.497,0.307,0.745c0.019,0.049,0.039,0.098,0.06,0.146c0.344,0.798,0.658,1.615,0.983,2.458    c0.16,0.411,0.311,0.827,0.466,1.241l-24.184-2.375L370.839,95.5z M230.999,383.898l-39.379-10.666    c6.999-2.205,14.19-3.781,21.508-4.719l0.04,0.014c0.003,0.002,0.007,0.004,0.01,0.004c0.013,0.006,0.027,0.01,0.04,0.016    c0.511,0.18,1.03,0.357,1.546,0.535c0.335,0.115,0.668,0.234,1.004,0.348c0.002,0.002,0.004,0.002,0.006,0.002    c0.987,0.332,1.984,0.654,2.979,0.963c0.842,0.264,1.684,0.516,2.536,0.758c0.026,0.008,0.051,0.014,0.077,0.021    c0.061,0.02,0.122,0.037,0.184,0.055c0.728,0.209,1.465,0.406,2.202,0.604c0,0,0.001,0,0.002,0    c0.003,0.002,0.006,0.002,0.009,0.004c1.01,0.268,2.021,0.525,3.048,0.777c0.866,0.209,1.742,0.408,2.619,0.607    c0.011,0.002,0.023,0.004,0.034,0.008c0.015,0.002,0.03,0.006,0.044,0.01c0.005,0,0.01,0.002,0.015,0.002    c0.068,0.016,0.136,0.031,0.206,0.045c0.873,0.191,1.754,0.373,2.625,0.541c0.006,0.002,0.011,0.002,0.017,0.004    c0.002,0,0.004,0,0.006,0.002c0,0,0.001,0,0.001,0c0.983,0.193,1.977,0.379,2.974,0.553l0,0h0    c0.004,0.002,0.009,0.002,0.013,0.004l0.168,0.029c0.577,0.1,1.147,0.199,1.724,0.283c0.247,0.047,0.499,0.086,0.745,0.115    c0.302,0.049,0.606,0.096,0.917,0.137c0.781,0.121,1.563,0.225,2.367,0.33c0.833,0.105,1.677,0.209,2.46,0.287    c0.841,0.096,1.682,0.18,2.439,0.244c0.322,0.035,0.65,0.066,0.945,0.088c0,0,0,0,0.001,0c0.006,0,0.012,0,0.019,0    c0.017,0.002,0.037,0.004,0.055,0.006l0.6,0.047c0.47,0.037,0.942,0.076,1.418,0.105c0.015,0,0.03,0,0.045,0.002    c0.001,0,0.003,0,0.004,0c0.001,0,0.002,0,0.003,0c0.238,0.018,0.477,0.031,0.714,0.041c0.238,0.02,0.478,0.033,0.718,0.049    c0.061,0.004,0.121,0.008,0.182,0.012c0.232,0.014,0.474,0.025,0.715,0.037c0.098,0.006,0.188,0.012,0.288,0.016    c0.067,0.004,0.133,0.006,0.2,0.008c0.36,0.018,0.725,0.033,1.091,0.043c0.147,0.008,0.296,0.012,0.451,0.014    c0.374,0.02,0.751,0.029,1.129,0.041l0.535,0.018c0.059,0.002,0.117,0.002,0.176,0.002h0.194c0.909,0.02,1.828,0.031,2.746,0.031    c0.908,0,1.827-0.012,2.735-0.031h0.225c0.062,0,0.123,0,0.186-0.004l1.61-0.049c0.052-0.002,0.157-0.006,0.209-0.01    c0.085-0.004,0.169-0.006,0.252-0.01c0.465-0.014,0.929-0.033,1.394-0.064c0.916-0.041,1.831-0.094,2.747-0.164    c0.58-0.031,1.151-0.072,1.723-0.123c0.303-0.021,0.598-0.049,0.899-0.078l0.456-0.041c0.754-0.072,1.497-0.145,2.25-0.227    c0.007,0,0.112-0.012,0.119-0.014c0.781-0.09,1.561-0.178,2.331-0.277c1.133-0.145,2.257-0.301,3.378-0.479    c0.001,0,0.002,0,0.003,0c0.911-0.141,1.801-0.283,2.654-0.436c0.031-0.006,0.063-0.012,0.095-0.018    c0.745-0.127,1.501-0.266,2.233-0.412l0.008-0.002c0.001,0,0.003,0,0.005,0l0,0l0.592-0.117c0.001,0,0.003,0,0.005,0    c0.018-0.004,0.035-0.008,0.053-0.012l0.101-0.02c0.841-0.168,1.688-0.338,2.526-0.525l0.168-0.035    c0.034-0.008,0.068-0.016,0.103-0.021c0.794-0.176,1.589-0.361,2.374-0.547c0.047-0.012,0.133-0.035,0.18-0.047l0.396-0.098    c0.834-0.201,1.648-0.412,2.421-0.621c0.002,0,0.003,0,0.004,0c0.004-0.002,0.008-0.002,0.011-0.004    c0.052-0.014,0.104-0.029,0.157-0.043c0.783-0.205,1.557-0.422,2.331-0.643l0.22-0.063c0.014-0.004,0.027-0.008,0.042-0.012    c0.01-0.002,0.02-0.006,0.029-0.008c0.678-0.197,1.332-0.395,1.976-0.592c0.352-0.107,0.705-0.217,1.062-0.328    c0.806-0.254,1.595-0.51,2.369-0.771c0.134-0.045,0.267-0.094,0.399-0.139c0.283-0.094,0.564-0.193,0.847-0.289    c5.668,0.889,11.253,2.156,16.719,3.811L230.999,383.898z M163.664,322.674c-0.028-0.033-0.053-0.061-0.08-0.092    c0,0,0-0.002-0.001-0.002l0,0c-1.013-1.184-2.023-2.404-3.045-3.684l0,0l-0.931-1.178c-0.112-0.143-0.219-0.277-0.325-0.42    c-0.028-0.039-0.057-0.076-0.085-0.113c-0.288-0.369-0.577-0.748-0.904-1.193c-0.288-0.377-0.566-0.756-0.836-1.133    c-0.031-0.045-0.063-0.088-0.095-0.129c-0.218-0.287-0.425-0.578-0.629-0.867l-0.444-0.621c-0.167-0.232-0.333-0.465-0.522-0.74    c-0.289-0.414-0.578-0.84-0.865-1.26c-0.839-1.236-1.671-2.516-2.576-3.967c-0.133-0.207-0.257-0.406-0.382-0.615    c-0.021-0.035-0.044-0.072-0.067-0.107c-0.148-0.234-0.295-0.471-0.445-0.719c-0.148-0.244-0.298-0.496-0.454-0.764    c-0.015-0.023-0.029-0.049-0.044-0.074c-0.318-0.523-0.625-1.057-0.931-1.59c-0.052-0.09-0.106-0.184-0.157-0.271l-0.095-0.166    l-0.964-1.713l-0.071-0.127c-0.295-0.541-0.561-1.047-0.833-1.563l26.281-7.693c2.65-0.777,4.17-3.555,3.394-6.203    c-0.776-2.652-3.556-4.17-6.203-3.395l-27.858,8.156c-0.077-0.18-0.153-0.357-0.229-0.537c-0.279-0.664-0.559-1.338-0.849-2.063    c-0.29-0.701-0.57-1.412-0.841-2.133c-0.001-0.002-0.003-0.006-0.005-0.01c-0.021-0.057-0.044-0.113-0.068-0.17    c-0.254-0.682-0.507-1.361-0.757-2.055c-0.267-0.734-0.524-1.479-0.784-2.248c-0.257-0.744-0.495-1.486-0.729-2.215    c-0.219-0.691-0.428-1.373-0.632-2.041c-0.024-0.082-0.05-0.156-0.074-0.238c-0.449-1.512-0.875-3.055-1.26-4.555    c-0.195-0.779-0.391-1.57-0.573-2.34c-0.145-0.613-0.289-1.229-0.427-1.863l-0.022-0.102c-0.032-0.154-0.065-0.309-0.104-0.463    l-0.443-2.197c-0.023-0.119-0.046-0.238-0.071-0.355c-0.001-0.004-0.001-0.008-0.002-0.012c-0.113-0.596-0.22-1.195-0.326-1.791    l-0.046-0.26c-0.065-0.373-0.122-0.734-0.182-1.102l0.996-0.447l70.39,10.762l-13.429,3.932c-2.65,0.775-4.17,3.553-3.394,6.203    c0.638,2.182,2.633,3.598,4.796,3.598c0.465,0,0.938-0.066,1.407-0.203l35.061-10.266c0.001,0,0.002,0,0.003,0l31.192-9.131    l66.854,27.32l-97.096,28.422c0,0-0.001,0-0.001,0l-53.184,15.563c-0.56-0.471-1.118-0.941-1.651-1.398    c-1.198-1.033-2.396-2.105-3.546-3.17c-0.579-0.541-1.157-1.09-1.729-1.643c-0.56-0.541-1.12-1.092-1.698-1.668    c-0.568-0.57-1.118-1.139-1.641-1.68c-0.55-0.578-1.099-1.156-1.627-1.721c-0.015-0.018-0.028-0.031-0.043-0.047    c-0.033-0.035-0.067-0.074-0.1-0.111C165.585,324.869,164.589,323.752,163.664,322.674z M189.183,166.124l-40.388-16.503    l63.287,6.22L189.183,166.124z M133.395,154.131l43.193,17.649l-43.193,19.396V154.131z M325.854,346.484    c-0.002,0.002-0.004,0.002-0.006,0.004l0,0c-0.01,0.006-0.02,0.014-0.029,0.02c-0.052,0.031-0.104,0.064-0.154,0.098h-0.001    c-0.671,0.432-1.343,0.854-2.028,1.273c-0.643,0.398-1.28,0.781-1.915,1.158c-0.27,0.158-0.547,0.32-0.825,0.482    c-0.566,0.33-1.133,0.658-1.686,0.967c-0.001,0-0.001,0-0.002,0.002c-0.039,0.021-0.077,0.043-0.115,0.066    c-0.715,0.393-1.43,0.787-2.153,1.172c-0.001,0.002-0.001,0.002-0.001,0.002c-0.146,0.074-0.288,0.15-0.435,0.23    c-0.267,0.143-0.534,0.281-0.805,0.422c-0.041,0.021-0.08,0.041-0.121,0.063c-0.314,0.162-0.635,0.324-0.965,0.49    c-0.678,0.348-1.363,0.686-2.05,1.025c-0.124,0.055-0.218,0.102-0.282,0.135c-0.761,0.365-1.521,0.723-2.308,1.078    c-0.758,0.346-1.516,0.682-2.273,1.008c-0.074,0.031-0.147,0.064-0.219,0.1l-0.86,0.361c-0.347,0.148-0.691,0.299-1.044,0.439    c0,0,0,0-0.001,0l-0.03,0.014c-0.953,0.389-1.907,0.768-2.8,1.115c-0.813,0.303-1.616,0.598-2.429,0.891l-0.041,0.016    c-0.046,0.014-0.091,0.029-0.135,0.047c-0.766,0.277-1.53,0.535-2.293,0.793c-1.581,0.533-3.221,1.045-4.979,1.557    c-0.847,0.24-1.693,0.482-2.575,0.713c-0.74,0.199-1.48,0.389-2.222,0.57l0,0c-0.034,0.008-0.067,0.016-0.101,0.025l-0.145,0.035    c-0.113,0.027-0.225,0.055-0.335,0.084c-0.72,0.17-1.446,0.34-2.175,0.5l-0.292,0.063c-0.803,0.18-1.604,0.34-2.415,0.5    l-0.646,0.127c-0.655,0.131-1.319,0.252-2.015,0.373c-0.853,0.152-1.707,0.287-2.562,0.42c-1.033,0.164-2.065,0.307-3.108,0.441    c-0.726,0.092-1.46,0.176-2.271,0.27c-0.706,0.076-1.402,0.145-2.109,0.211c0,0-0.001,0-0.001,0.002l-0.345,0.029    c-0.002,0-0.004,0-0.006,0l-0.114,0.012c-0.218,0.02-0.432,0.041-0.65,0.057c-0.043,0.002-0.086,0.006-0.128,0.01    c-0.489,0.043-0.979,0.08-1.476,0.105c-0.041,0.002-0.082,0.006-0.124,0.008c-0.845,0.066-1.688,0.113-2.532,0.15    c-0.041,0.002-0.081,0.004-0.121,0.008c-0.365,0.023-0.729,0.041-1.094,0.049c-0.078,0.002-0.19,0.006-0.268,0.012    c-0.092,0.002-0.184,0.006-0.276,0.012l-0.036,0.002l-1.634,0.043c-0.037,0-0.075,0-0.112,0.002    c-0.856,0.02-1.718,0.029-2.575,0.029c-0.859,0-1.718-0.01-2.57-0.029c-0.038-0.002-0.075-0.002-0.112-0.002l-0.656-0.016h-0.01    c-0.339-0.01-0.677-0.02-1.02-0.037c-0.001,0-0.003,0-0.004,0c-0.083-0.004-0.228-0.006-0.321-0.008    c-0.062-0.002-0.125-0.006-0.187-0.008c0,0-0.001,0-0.001,0c-0.384-0.01-0.777-0.027-1.197-0.047    c-0.542-0.027-1.083-0.053-1.625-0.098c-0.069-0.006-0.138-0.01-0.207-0.012c-0.169-0.008-0.338-0.014-0.507-0.027    c-0.039-0.004-0.079-0.006-0.118-0.01c-0.031-0.002-0.062-0.004-0.093-0.006c-0.563-0.035-1.133-0.078-1.696-0.129l-0.155-0.012    c-0.232-0.016-0.473-0.041-0.789-0.072c-0.759-0.066-1.518-0.143-2.337-0.234c-0.757-0.076-1.513-0.17-2.26-0.266c0,0,0,0-0.001,0    c-0.719-0.094-1.427-0.186-2.137-0.299c-0.053-0.008-0.106-0.016-0.159-0.021c-0.259-0.033-0.51-0.074-0.76-0.115    c-0.092-0.014-0.257-0.037-0.35-0.047c-0.074-0.014-0.148-0.025-0.223-0.039c-0.008,0-0.015-0.004-0.023-0.006    c-0.601-0.096-1.201-0.189-1.792-0.295c0,0-0.001,0-0.001,0l-0.008-0.002c-0.934-0.164-1.868-0.338-2.815-0.523    c-0.84-0.164-1.661-0.336-2.492-0.516c-0.001,0-0.002,0-0.003,0c-0.038-0.01-0.075-0.018-0.11-0.023    c-0.557-0.127-1.109-0.258-1.663-0.387c-0.275-0.064-0.559-0.127-0.83-0.191c-0.95-0.232-1.899-0.477-2.838-0.725    c-0.663-0.178-1.326-0.355-1.98-0.541c-0.109-0.035-0.218-0.066-0.328-0.096c-0.003,0-0.005-0.002-0.008-0.004    c-0.768-0.217-1.526-0.443-2.284-0.682h0c-0.004-0.002-0.008-0.002-0.013-0.004c-0.931-0.287-1.852-0.586-2.761-0.893    c-0.794-0.266-1.587-0.545-2.387-0.826l-2.313-0.855c-0.056-0.021-0.104-0.039-0.161-0.061c-0.412-0.154-0.812-0.316-1.214-0.477    l-0.395-0.158c-0.367-0.143-0.735-0.287-1.102-0.439c-0.037-0.016-0.075-0.031-0.113-0.047c-0.645-0.262-1.29-0.533-1.972-0.834    c-0.744-0.318-1.488-0.646-2.222-0.975l-0.004-0.002c-0.045-0.023-0.091-0.045-0.137-0.066c-0.781-0.355-1.562-0.723-2.334-1.09    c-1.796-0.867-3.414-1.691-4.956-2.525c-0.643-0.346-1.285-0.701-1.928-1.055c-2.325-1.309-4.615-2.688-6.828-4.115    c-0.001,0-0.001,0-0.002-0.002c-0.011-0.006-0.021-0.014-0.032-0.02c-0.64-0.41-1.272-0.828-1.907-1.258    c-0.104-0.07-0.209-0.143-0.313-0.213l44.955-13.154l92.998,14.215C326.347,346.158,326.103,346.322,325.854,346.484z     M383.435,230.606v10.746c0,0.853-0.01,1.706-0.028,2.549c-0.001,0.037-0.001,0.074-0.001,0.111l-0.004,0.36v0    c-0.011,0.366-0.025,0.733-0.038,1.1l-21.162-8.65L383.435,230.606z M363.659,308.613c-0.397,0.625-0.796,1.238-1.211,1.844    c-0.023,0.037-0.046,0.072-0.071,0.107c-0.002,0.004-0.005,0.008-0.008,0.012c-0.114,0.172-0.231,0.34-0.346,0.51    c-0.286,0.426-0.572,0.852-0.866,1.275c-2.463,3.547-5.137,7.004-7.925,10.25l-0.117,0.135c-0.42,0.482-0.832,0.957-1.253,1.432    l0,0c-0.988,1.113-2.016,2.227-3.042,3.299l-0.075,0.08c-0.416,0.439-0.837,0.873-1.278,1.318    c-0.05,0.051-0.093,0.098-0.144,0.146c-0.449,0.457-0.893,0.889-1.339,1.328c-0.258,0.254-0.511,0.51-0.769,0.762l-1.017,0.969    c-0.324,0.307-0.655,0.619-1.023,0.957c-0.056,0.051-0.107,0.1-0.165,0.152c-0.692,0.646-1.385,1.275-2.095,1.887    c-0.038,0.033-0.074,0.066-0.113,0.1c-0.601,0.533-1.221,1.066-1.843,1.594l-0.577,0.482c-0.011,0.01-0.021,0.018-0.03,0.025    h-0.001c-0.134,0.113-0.273,0.223-0.408,0.336L256.3,325.137l87.503-25.615l20.351,8.313    C363.988,308.096,363.824,308.355,363.659,308.613z M247.234,260.061l-18.08,5.291l-76.283-11.661l37.526-16.855L247.234,260.061z     M152.576,393.77c0.03-0.025,0.061-0.049,0.091-0.072c0.311-0.242,0.626-0.484,0.965-0.74c0.655-0.504,1.31-0.996,1.982-1.49    c0.006-0.004,0.012-0.008,0.019-0.014c1.386-1.014,2.781-1.99,4.205-2.941c0.272-0.188,0.553-0.373,0.834-0.553    c0.039-0.023,0.078-0.049,0.116-0.076c0.659-0.445,1.328-0.871,2.004-1.295c0.724-0.453,1.448-0.896,2.172-1.342    c0.719-0.432,1.438-0.854,2.192-1.285c0.331-0.193,0.661-0.375,0.991-0.559c0.062-0.035,0.123-0.07,0.183-0.107    c0.041-0.021,0.082-0.045,0.123-0.068c0.518-0.291,1.036-0.574,1.564-0.855l0,0c0.021-0.012,0.039-0.021,0.06-0.033    c0.796-0.439,1.603-0.861,2.443-1.287c0.717-0.367,1.444-0.727,2.17-1.084c0,0,0.001-0.002,0.001-0.002    c0.421-0.205,0.845-0.41,1.27-0.613l28.923,7.834L152.576,393.77z M226.412,449.986l45.938,12.432l-94.239-6.348L226.412,449.986z     M104.687,487.002l0.023-0.6c0.072-1.574,0.16-3.006,0.271-4.416l0.143-1.633c0-0.002,0-0.006,0.001-0.008    c0.058-0.635,0.125-1.279,0.193-1.918c0.067-0.633,0.145-1.27,0.222-1.91c0.085-0.707,0.179-1.414,0.285-2.139    c0.076-0.531,0.152-1.063,0.242-1.625c0.093-0.604,0.185-1.205,0.312-1.9c0.08-0.488,0.158-0.967,0.255-1.445    c0.007-0.033,0.014-0.066,0.02-0.1c0.459-2.521,1.019-5.098,1.666-7.68c0.019-0.078,0.042-0.154,0.061-0.23l213.798,14.402    l84.802,5.707c0.148,1.803,0.26,3.635,0.333,5.494H104.687z"/><path d="M312.125,206.382c0,5.06,4.11,9.17,9.18,9.17c5.061,0,9.171-4.11,9.171-9.17c0-5.07-4.11-9.18-9.171-9.18    C316.235,197.203,312.125,201.313,312.125,206.382z"/></g></g></svg>